<svg xmlns="http://www.w3.org/2000/svg" width="62" height="48" viewBox="0 0 63 48">
  <g id="icone_contact" data-name="icone contact" transform="translate(-23 -432)">
    <path id="Icon_material-mail-outline" data-name="Icon material-mail-outline" d="M41.067,8.333H8.267a4.107,4.107,0,0,0-4.08,4.125l-.02,24.75a4.125,4.125,0,0,0,4.1,4.125h32.8a4.125,4.125,0,0,0,4.1-4.125V12.458a4.125,4.125,0,0,0-4.1-4.125Zm0,28.875H8.267V16.583L24.667,26.9l16.4-10.313V37.208Zm-16.4-14.437L8.267,12.458h32.8l-16.4,10.313Z" transform="translate(28.833 423.667)" fill="#fc0"/>
    <text id="Contactez-moi" transform="translate(54 478)" fill="#303030" font-size="9" font-family="Quicksand-Medium, Quicksand" font-weight="500"><tspan x="-30.829" y="0">Contactez-moi</tspan></text>
  </g>
</svg>
