<svg xmlns="http://www.w3.org/2000/svg" width="50" height="35" viewBox="0 0 50 35">
  <g id="icone_projets" data-name="icone projets" transform="translate(-29 -346)">
    <path id="Icon_material-link" data-name="Icon material-link" d="M8.062,24.583a6.284,6.284,0,0,1,6.355-6.2h8.2v-3.8h-8.2a10.131,10.131,0,0,0-10.25,10,10.131,10.131,0,0,0,10.25,10h8.2v-3.8h-8.2A6.284,6.284,0,0,1,8.062,24.583Zm8.4,2h16.4v-4h-16.4Zm18.45-12h-8.2v3.8h8.2a6.2,6.2,0,1,1,0,12.4h-8.2v3.8h8.2a10.131,10.131,0,0,0,10.25-10A10.131,10.131,0,0,0,34.917,14.583Z" transform="translate(28.833 331.417)" fill="#fc0"/>
    <text id="Mes_projets" data-name="Mes projets" transform="translate(54 379)" fill="#303030" font-size="9" font-family="Quicksand-Medium, Quicksand" font-weight="500"><tspan x="-24.39" y="0">Mes projets</tspan></text>
  </g>
</svg>
