<svg xmlns="http://www.w3.org/2000/svg" width="70" height="70" viewBox="0 0 70 70">
  <g id="Instagram" transform="translate(-902 -601)">
    <circle id="Ellipse_2" data-name="Ellipse 2" cx="35" cy="35" r="35" transform="translate(902 601)" fill="#c13584"/>
    <path id="Icon_awesome-instagram" data-name="Icon awesome-instagram" d="M21.578,12.749A11.063,11.063,0,1,0,32.641,23.812,11.045,11.045,0,0,0,21.578,12.749Zm0,18.255a7.192,7.192,0,1,1,7.192-7.192A7.205,7.205,0,0,1,21.578,31ZM35.674,12.3a2.58,2.58,0,1,1-2.58-2.58A2.574,2.574,0,0,1,35.674,12.3ZM43,14.915c-.164-3.456-.953-6.518-3.485-9.041s-5.584-3.312-9.041-3.485c-3.562-.2-14.24-.2-17.8,0a17.807,17.807,0,0,0-4.823.839A10.674,10.674,0,0,0,3.632,5.865C1.1,8.388.32,11.449.146,14.906c-.2,3.562-.2,14.24,0,17.8.164,3.456.953,6.518,3.485,9.041s5.584,3.312,9.041,3.485c3.562.2,14.24.2,17.8,0,3.456-.164,6.518-.953,9.041-3.485S42.827,36.164,43,32.708c.2-3.562.2-14.23,0-17.793ZM38.4,36.53a7.281,7.281,0,0,1-4.1,4.1c-2.84,1.126-9.58.867-12.719.867s-9.888.25-12.719-.867a7.281,7.281,0,0,1-4.1-4.1c-1.126-2.84-.867-9.58-.867-12.719s-.25-9.888.867-12.719a7.281,7.281,0,0,1,4.1-4.1c2.84-1.126,9.58-.867,12.719-.867s9.888-.25,12.719.867a7.281,7.281,0,0,1,4.1,4.1c1.126,2.84.867,9.58.867,12.719S39.525,33.7,38.4,36.53Z" transform="translate(915.84 612.603)" fill="#fff"/>
  </g>
</svg>
