<svg xmlns="http://www.w3.org/2000/svg" width="70" height="70" viewBox="0 0 70 70">
  <g id="linkedin" transform="translate(-774 -601)">
    <circle id="Ellipse_3" data-name="Ellipse 3" cx="35" cy="35" r="35" transform="translate(774 601)" fill="#0e76a8"/>
    <path id="Icon_awesome-linkedin-in" data-name="Icon awesome-linkedin-in" d="M9.348,41.763H.69V13.881H9.348ZM5.014,10.077a5.038,5.038,0,1,1,5.014-5.062A5.057,5.057,0,0,1,5.014,10.077Zm36.74,31.686h-8.64V28.19c0-3.235-.065-7.383-4.5-7.383-4.5,0-5.192,3.514-5.192,7.15V41.763H14.772V13.881h8.3v3.8H23.2a9.1,9.1,0,0,1,8.192-4.5c8.763,0,10.374,5.77,10.374,13.266V41.763Z" transform="translate(788.921 612.84)" fill="#fff"/>
  </g>
</svg>
